<?xml version="1.0" encoding="utf-8"?>
<!-- Generator: Adobe Illustrator 22.0.1, SVG Export Plug-In . SVG Version: 6.00 Build 0)  -->
<svg version="1.1" id="Layer_1" xmlns="http://www.w3.org/2000/svg" xmlns:xlink="http://www.w3.org/1999/xlink" x="0px" y="0px"
	 viewBox="0 0 240 70" style="enable-background:new 0 0 240 70;" xml:space="preserve">
<style type="text/css">
	.st0{fill:#4CA4B6;}
	.st1{fill:#E8656E;}
</style>
<g>
	<g>
		<path class="st0" d="M75,35.1L75,35.1C75,28.4,80,23,87,23c3.6,0,5.9,1.1,8,2.6c0.4,0.3,0.8,0.9,0.8,1.6c0,1.1-0.9,2-2,2
			c-0.6,0-1-0.2-1.2-0.4c-1.6-1.3-3.3-2.1-5.5-2.1c-4.4,0-7.7,3.6-7.7,8.2V35c0,4.5,3.2,8.2,7.7,8.2c2.5,0,4.1-0.8,5.8-2.2
			c0.3-0.3,0.7-0.5,1.2-0.5c1,0,1.9,0.9,1.9,1.9c0,0.6-0.3,1.1-0.7,1.5C93,45.8,90.6,47,86.8,47C80.1,47,75,41.8,75,35.1z"/>
		<path class="st0" d="M97.9,38L97.9,38c0-5.1,4-9.2,9.3-9.2s9.3,4.1,9.3,9.1v0.1c0,5-4,9.1-9.4,9.1C101.8,47,97.9,43,97.9,38z
			 M112.5,38L112.5,38c0-3.1-2.2-5.7-5.4-5.7c-3.2,0-5.3,2.5-5.3,5.6v0.1c0,3,2.2,5.6,5.3,5.6C110.5,43.5,112.5,41,112.5,38z"/>
		<path class="st0" d="M120.8,50.4c-0.7-0.3-1.1-0.8-1.1-1.6c0-0.9,0.8-1.7,1.7-1.7c0.3,0,0.5,0.1,0.7,0.2c1.6,0.9,3.3,1.4,5.4,1.4
			c3.6,0,5.5-1.9,5.5-5.4V42c-1.5,1.9-3.3,3.2-6.2,3.2c-4.1,0-8-3-8-8.2V37c0-5.2,3.9-8.2,8-8.2c2.9,0,4.8,1.4,6.1,3v-0.8
			c0-1.1,0.9-2,2-2c1.1,0,2,0.9,2,2v12.1c0,2.9-0.8,5.1-2.2,6.6c-1.6,1.6-4,2.4-7.2,2.4C125.1,52,122.9,51.5,120.8,50.4z M133,37
			L133,37c0-2.9-2.4-4.9-5.1-4.9c-2.8,0-5,1.9-5,4.8V37c0,2.9,2.2,4.8,5,4.8C130.7,41.8,133,39.9,133,37z"/>
		<path class="st0" d="M141.1,31c0-1.1,0.9-2,2-2s2,0.9,2,2v0.9c1.1-1.6,2.8-3,5.5-3c3.9,0,6.2,2.7,6.2,6.7v9.3c0,1.1-0.9,2-2,2
			s-2-0.9-2-2v-8.1c0-2.7-1.4-4.3-3.7-4.3c-2.3,0-3.9,1.6-3.9,4.3v8.1c0,1.1-0.9,2-2,2c-1.1,0-2-0.9-2-2V31z"/>
		<path class="st0" d="M160.8,24.4c0-1.2,1-2,2.3-2c1.3,0,2.3,0.8,2.3,2v0.2c0,1.2-1,2-2.3,2c-1.3,0-2.3-0.8-2.3-2V24.4z M161.1,31
			c0-1.1,0.9-2,2-2s2,0.9,2,2v13.9c0,1.1-0.9,2-2,2c-1.1,0-2-0.9-2-2V31z"/>
		<path class="st1" d="M169.9,25.3c0-1.1,0.9-2,2.1-2c1.1,0,2,0.9,2,2v7.8H185v-7.8c0-1.1,0.9-2,2-2c1.2,0,2.1,0.9,2.1,2v19.5
			c0,1.1-0.9,2-2.1,2c-1.1,0-2-0.9-2-2v-7.9H174v7.9c0,1.1-0.9,2-2,2c-1.2,0-2.1-0.9-2.1-2V25.3z"/>
		<path class="st1" d="M192.6,41.6L192.6,41.6c0-3.8,3-5.7,7.2-5.7c2,0,3.3,0.3,4.7,0.7v-0.4c0-2.5-1.5-3.8-4.3-3.8
			c-1.5,0-2.8,0.3-3.9,0.7c-0.2,0.1-0.4,0.1-0.6,0.1c-0.9,0-1.7-0.7-1.7-1.7c0-0.7,0.5-1.4,1.1-1.6c1.7-0.6,3.3-1,5.6-1
			c2.6,0,4.6,0.7,5.8,2c1.3,1.3,1.9,3.1,1.9,5.4v8.6c0,1.1-0.9,1.9-2,1.9c-1.2,0-2-0.8-2-1.7v-0.7c-1.2,1.4-3,2.6-5.7,2.6
			C195.5,47,192.6,45.1,192.6,41.6z M204.6,40.3v-1.2c-1-0.4-2.4-0.7-4-0.7c-2.6,0-4.1,1.1-4.1,2.9v0.1c0,1.7,1.5,2.7,3.4,2.7
			C202.6,44.1,204.6,42.6,204.6,40.3z"/>
		<path class="st1" d="M212.4,24.3c0-1.1,0.9-2,2-2s2,0.9,2,2v7.8c1.3-1.8,3.1-3.3,6-3.3c4.1,0,8.1,3.2,8.1,9.1v0.1
			c0,5.8-4,9.1-8.1,9.1c-2.9,0-4.7-1.5-6-3.1v0.9c0,1.1-0.9,2-2,2c-1.1,0-2-0.9-2-2V24.3z M226.4,37.9L226.4,37.9
			c0-3.4-2.3-5.7-5-5.7c-2.7,0-5.1,2.3-5.1,5.6v0.1c0,3.3,2.4,5.6,5.1,5.6C224.1,43.5,226.4,41.4,226.4,37.9z"/>
	</g>
	<g>
		<circle class="st0" cx="44.6" cy="18.9" r="2.8"/>
		<circle class="st0" cx="55.6" cy="25.3" r="1.8"/>
		<circle class="st0" cx="30.2" cy="18.9" r="1.4"/>
		<circle class="st0" cx="20.4" cy="27" r="1.7"/>
		<path class="st0" d="M48.4,46.4c-2.3-2.3-5.1-3.6-8.4-3.6c-2.6,0-5.1-0.2-7.7-0.8c-0.4-0.1-1.1-0.5-1.3-0.1
			c-0.4,0.5,0.4,1.8,0.4,1.9c1,1.6,2.6,2.3,4.4,2.4c0.6,0.1,1.3,0,1.9,0.1c0.5,0,1.6,0.1,1.6,0.8c0,0.5-0.6,1-1,1.2
			c-1.1,0.7-2.5,0.9-3.8,1.1c-1.4,0.2-2.8,0.2-4.2,0c-2.5-0.3-5-1.2-7.3-2.3c-1.7-0.9-3-2.2-4.3-3.6c-0.4-0.4-0.8-0.8-1.2-1.1
			c-0.4-0.2-1.2-0.1-1.1,0.5c0,0.1,0,0.2,0.1,0.3c0.4,1.1,1.2,2.2,2,3.1c0.8,0.9,1.7,1.8,2.6,2.6c2.5,2.1,5.4,3.6,8.6,4.6
			c2.5,0.7,5,1.1,7.5,1.1c2.4,0,4.7,0.1,7.1,0.5c3.1,0.6,5.9,1.8,8.2,3.9c0.3,0.2,0.5,0.5,0.8,0.7c0.3,0.3,0.8,0.1,0.7-0.3
			c-0.1-0.9-0.3-2.2-0.4-2.8C52.8,52.7,51.3,49.2,48.4,46.4z"/>
		<path class="st0" d="M23.2,39.9c-0.6,0-0.9,0.4-0.8,0.9c0,0.3,0.2,0.6,0.3,0.9c0.9,1.9,2.3,3.6,3.5,5.3c0.2,0.3,0.5,0.5,0.9,0.6
			c0.8,0.2,2.9,0.4,2.9,0.4s-1.3-2-1.8-2.8c-1.2-1.7-2.5-3.3-3.9-4.8C24,40.1,23.6,39.8,23.2,39.9z"/>
		<path class="st0" d="M20.1,40c-0.4-0.3-0.9-0.4-1.3-0.1c-0.4,0.3-0.3,0.7-0.1,1.1c0.7,1.6,1.4,3.1,2.9,4.1
			c1.2,0.8,4.2,2.1,4.2,2.1S23.2,43.5,22,42C21.4,41.3,20.8,40.6,20.1,40z"/>
		<path class="st0" d="M30.2,47.3c0.6,0.8,0.7,1,2.2,1c0.2,0,1.1-0.1,1.1-0.1s-3.1-4.5-4.7-6.3c-0.2-0.3-0.5-0.5-0.9-0.6
			c-0.7-0.2-1,0.2-0.9,0.9c0.1,0.4,0.3,0.8,0.5,1.2C28.3,44.8,29.3,46,30.2,47.3z"/>
		<path class="st0" d="M69.4,35.3c0-0.3,0-0.6-0.1-0.9c-0.1-1.1-0.4-2.3-0.9-3.3c-0.5-1-1.2-2-1.9-2.8c0,0-0.1-0.1-0.1-0.1
			c0.1-2.5-0.8-5.1-2-7.2c-2.1-3.5-5.6-5.6-9.6-6.3c-0.1,0-0.2,0-0.3,0c-0.2-0.3-0.4-0.6-0.7-0.9c-0.9-1-2-1.8-3.2-2.4
			c-1.2-0.6-2.5-1-3.8-1.2c-2.5-0.4-5.1-0.1-7.4,0.9c0,0-0.1,0-0.1,0c-2.2-0.7-4.4-0.9-6.7-0.6c-1.1,0.1-2.2,0.4-3.3,0.7
			c-1.1,0.3-2.1,0.8-3.1,1.3c-1.8,1-3.4,2.4-4.4,4.2c-1,0.3-1.9,0.7-2.8,1.1c-0.7,0.3-1.4,0.7-2.1,1.1c-2.6,1.5-4.9,3.5-6.5,6
			c-2.9,4.2-4.1,10.6-1.7,15.3c0.8,1.6,2.1,3.2,3.7,4.2c0.6,0.4,1.7,0.7,2.3,0.2c1-0.9-0.4-2.2-1-2.8c-0.6-0.5-1.1-1.1-1.6-1.7
			c-0.9-1.3-1.4-2.8-1.6-4.3c-0.3-2.4,0.2-4.9,1.2-7.1c1.3-3,3.7-5.4,6.5-7.1c0.4-0.3,0.9-0.5,1.3-0.7c0.1-0.1,1.1-0.4,1.1-0.5
			c-0.2,1.2-0.1,2.4,0.1,3.5c0,0.1,0.1,0.2,0.3,0.3c0.2,0,0.3-0.1,0.4-0.3c0.2-2,0.8-3.9,1.9-5.4c1.1-1.5,2.6-2.6,4.3-3.3
			c0.8-0.4,1.7-0.7,2.6-0.9c0.9-0.2,1.8-0.4,2.8-0.5c1-0.1,1.9-0.1,2.9-0.1c-0.9,1-1.5,2.1-1.8,3.3c0,0.1,0,0.3,0.1,0.3
			c0.1,0.1,0.4,0.1,0.5-0.1c1.4-1.9,3.3-3.1,5.3-3.7c2-0.6,4.2-0.7,6.3-0.3c2.1,0.4,4.1,1.2,5.6,2.6c1.6,1.4,2.6,3.3,3.3,5.5
			c0,0.2,0.2,0.3,0.4,0.3c0.2,0,0.5-0.1,0.5-0.4c0.1-1,0-2.1-0.2-3.1c5.3,1.5,6.9,5.9,7.3,8.2c-0.8-0.3-1.6-0.6-2.5-0.7
			c-0.1,0-0.3,0.1-0.3,0.2c-0.1,0.2,0,0.4,0.2,0.4c1.8,0.8,3.3,2,4.3,3.5c1,1.5,1.6,3.2,1.6,5c0,0.2,0,0.4,0,0.6l0,0.3l0,0.3
			c-0.1,0.4-0.1,0.9-0.2,1.3c-0.1,0.3-0.1,0.6-0.2,1c-0.1,0.2-0.1,0.4-0.2,0.6l-0.2,0.6l-0.1,0.3c-0.4,0.7-0.8,1.4-1.4,2
			c-0.2,0.2-0.4,0.4-0.5,0.5c-0.2-1.3-0.6-2.6-1.2-3.7c-0.1-0.1-0.2-0.2-0.3-0.2c-0.2,0-0.3,0.1-0.4,0.3c-0.1,1.6-0.2,3-0.5,4.4
			c-0.2,1.4-0.6,2.7-1.2,3.9c-0.4,0.9-1.1,1.7-1.9,2.4c-0.8-0.8-1.7-1.5-2.7-2c-0.1-0.1-0.2-0.1-0.3,0c-0.2,0.1-0.2,0.3-0.1,0.5
			c1,1.6,2,3.1,2.7,4.6c0.5,1,1,2.1,1.4,3.2c0.3,0.9,0.4,2,1.4,2.5c0.5,0.3,1.2,0.1,1.6-0.3c0.8-0.9,0.1-2.2-0.3-3.1
			c-0.5-1.2-1.2-2.3-2-3.3c1.1-0.8,2.1-1.8,2.7-3.2c0.3-0.7,0.5-1.4,0.7-2.2c0.1,0,0.1,0,0.2-0.1c0.1,0,0.2-0.1,0.2-0.1
			c0.2-0.1,0.3-0.1,0.4-0.2c0.3-0.1,0.5-0.3,0.8-0.5c0.5-0.3,1-0.7,1.4-1.1c0.9-0.8,1.5-1.8,2-2.9c0.5-1.1,0.8-2.2,1-3.3
			c0.1-0.6,0.1-1.1,0.1-1.7l0-0.4L69.4,35.3z"/>
		<g>
			<g>
				<circle class="st1" cx="53.6" cy="32.2" r="2"/>
				<g>
					<path class="st1" d="M49.7,24c-0.6-0.5-1.6-0.4-2.1,0.2L42,31c-0.7,0.9-1.9,1.4-3,1.4c-1.2,0-2.2-0.6-2.9-1.6l-5-7.3
						c-0.5-0.7-1.4-0.8-2-0.4c-0.7,0.5-0.8,1.4-0.4,2c1.2,1.8,2.6,3.6,3.6,5.6c1.1,2.1,1.4,4.2,1.6,6.6c0.1,1.1,0.1,2.1,0.1,3.2
						l9.3,0.7c0.2-2.5,0.7-5.7,1.6-8.1c1.2-2.7,3.1-4.9,5-7.1C50.4,25.4,50.3,24.5,49.7,24z"/>
					<circle class="st1" cx="39.1" cy="27.3" r="2.7"/>
					<path class="st1" d="M48,38.7c-0.2,1.3-0.4,2.7-0.9,3.9c1.1,0.9,2.3,1.7,3.4,2.8c0.5,0.5,1,1.1,1.5,1.7
						c0.2,0.3,1.3,1.8,1.3,1.8s1.3-8.1,3.7-11.3c1.3-1.8,3.1-3.1,4.9-4.4c0.5-0.4,0.6-1.1,0.2-1.6c-0.4-0.5-1.1-0.6-1.6-0.2
						l-5.3,4.1c-0.7,0.5-1.6,0.7-2.5,0.5c-0.9-0.2-1.5-0.9-1.9-1.7L48.3,28c-0.2-0.6-0.9-0.9-1.4-0.6c-0.6,0.2-0.9,0.9-0.6,1.4
						c0.6,1.5,1.3,3.1,1.7,4.8C48.3,35.3,48.2,37,48,38.7z"/>
					<path class="st1" d="M31.5,26.7c-0.6-0.3-1.2,0-1.5,0.5l-3,6c-0.4,0.8-1.1,1.4-2,1.5c-0.9,0.2-1.8-0.1-2.4-0.7l-5-4.5
						c-0.5-0.4-1.2-0.4-1.6,0.1c-0.4,0.5-0.4,1.2,0.1,1.6c1.7,1.5,3.3,2.9,4.5,4.8c0.6,1,1,1.4,1.4,2.5c1.9-1.1,4.1,1.2,4.1,1.2
						s1.6-1,3.8,0.4c0-0.4-0.5-1.8-0.5-2.2c-0.1-1.8-0.1-3.4,0.5-5.1c0.5-1.6,1.4-3.1,2.1-4.6C32.3,27.7,32.1,27,31.5,26.7z"/>
				</g>
				<circle class="st1" cx="24.3" cy="31" r="2"/>
			</g>
		</g>
	</g>
</g>
</svg>
